<svg width="21.138458" height="21.178467" viewBox="0 0 21.1385 21.1785" fill="none" xmlns="http://www.w3.org/2000/svg" xmlns:xlink="http://www.w3.org/1999/xlink">
	<desc>
			Created with Pixso.
	</desc>
	<defs/>
	<path id="Vector" d="M20.51 18.54C20.51 18.82 20.45 19.09 20.34 19.35C20.23 19.6 20.07 19.83 19.86 20.02C19.65 20.21 19.41 20.35 19.15 20.44C18.88 20.53 18.61 20.57 18.33 20.54C15.25 20.21 12.29 19.15 9.7 17.47C7.28 15.93 5.23 13.89 3.7 11.47C2.01 8.86 0.96 5.89 0.63 2.8C0.6 2.52 0.64 2.24 0.72 1.98C0.81 1.72 0.96 1.48 1.14 1.27C1.33 1.07 1.56 0.9 1.81 0.79C2.07 0.68 2.34 0.62 2.62 0.62L5.62 0.62C6.1 0.62 6.57 0.79 6.94 1.1C7.31 1.42 7.55 1.86 7.62 2.34C7.74 3.3 7.98 4.24 8.32 5.15C8.45 5.51 8.48 5.9 8.4 6.27C8.32 6.64 8.14 6.99 7.87 7.26L6.6 8.53C8.02 11.03 10.09 13.11 12.6 14.53L13.87 13.26C14.14 12.99 14.48 12.81 14.86 12.73C15.23 12.65 15.62 12.68 15.98 12.81C16.89 13.15 17.83 13.38 18.79 13.51C19.27 13.58 19.72 13.82 20.03 14.2C20.35 14.57 20.52 15.05 20.51 15.54L20.51 18.54Z" stroke="#383838" stroke-opacity="1.000000" stroke-width="1.250000" stroke-linejoin="round"/>
</svg>
