<svg width="24.000000" height="24.000000" viewBox="0 0 24 24" fill="none" xmlns="http://www.w3.org/2000/svg" xmlns:xlink="http://www.w3.org/1999/xlink">
	<desc>
			Created with Pixso.
	</desc>
	<defs>
		<clipPath id="clip1_1441">
			<rect id="icons" width="24.000000" height="24.000000" fill="white" fill-opacity="0"/>
		</clipPath>
	</defs>
	<g clip-path="url(#clip1_1441)">
		<path id="Union" d="M20 21.625L4 21.625C3.64999 21.625 3.375 21.3501 3.375 21L3.375 19C3.375 18.6934 3.40433 18.3926 3.46301 18.0977C3.5217 17.8025 3.60971 17.5134 3.72705 17.23C3.84442 16.9468 3.98663 16.6802 4.15372 16.4299C4.32083 16.1799 4.51279 15.9465 4.72964 15.7297C4.94647 15.5127 5.17993 15.3208 5.42999 15.1538C5.68008 14.9866 5.94678 14.8445 6.2301 14.7271C6.5134 14.6096 6.80255 14.5217 7.09753 14.4631C7.39252 14.4043 7.69336 14.375 8 14.375L16 14.375C16.3066 14.375 16.6075 14.4043 16.9025 14.4631C17.1974 14.5217 17.4866 14.6096 17.7699 14.7271C18.0532 14.8445 18.3199 14.9866 18.57 15.1538C18.8201 15.3208 19.0535 15.5127 19.2704 15.7297C19.4872 15.9465 19.6792 16.1799 19.8463 16.4299C20.0134 16.6802 20.1556 16.9468 20.2729 17.23C20.3903 17.5134 20.4783 17.8025 20.537 18.0977C20.5957 18.3926 20.625 18.6934 20.625 19L20.625 21C20.625 21.3501 20.35 21.625 20 21.625ZM19.375 20.375L19.375 19C19.375 18.7761 19.3536 18.5566 19.3108 18.3416C19.268 18.1262 19.2037 17.9153 19.1181 17.7085C19.0324 17.5017 18.9287 17.3071 18.8067 17.1245C18.6848 16.9421 18.5447 16.7717 18.3865 16.6135C18.2282 16.4553 18.0579 16.3152 17.8754 16.1934C17.6929 16.0713 17.4983 15.9675 17.2916 15.8818C17.0848 15.7964 16.8738 15.7319 16.6585 15.6892C16.4433 15.6465 16.2238 15.625 16 15.625L8 15.625C7.77621 15.625 7.5567 15.6465 7.34146 15.6892C7.12619 15.7319 6.91519 15.7964 6.70844 15.8818C6.50171 15.9675 6.3071 16.0713 6.1246 16.1934C5.94211 16.3152 5.77176 16.4553 5.61353 16.6135C5.45529 16.7717 5.31519 16.9421 5.19327 17.1245C5.07132 17.3071 4.96753 17.5017 4.8819 17.7085C4.79626 17.9153 4.73206 18.1262 4.68924 18.3416C4.64642 18.5566 4.625 18.7761 4.625 19L4.625 20.375L19.375 20.375Z" clip-rule="evenodd" fill="#383838" fill-opacity="1.000000" fill-rule="evenodd"/>
		<path id="Vector" d="M12 11C9.79 11 8 9.2 8 7C8 4.79 9.79 3 12 3C14.2 3 16 4.79 16 7C16 9.2 14.2 11 12 11Z" stroke="#383838" stroke-opacity="1.000000" stroke-width="1.250000" stroke-linejoin="round"/>
	</g>
</svg>
